<svg xmlns="http://www.w3.org/2000/svg" viewBox="0 0 512 512" width="512" height="512">
  <defs>
    <!-- Outer glass tube gradient -->
    <radialGradient id="glassGrad" cx="50%" cy="30%" r="60%">
      <stop offset="0%" stop-color="#2a2a3a" stop-opacity="0.6"/>
      <stop offset="100%" stop-color="#0a0a14" stop-opacity="0.95"/>
    </radialGradient>

    <!-- Glass shine -->
    <linearGradient id="shineGrad" x1="0%" y1="0%" x2="100%" y2="100%">
      <stop offset="0%" stop-color="#ffffff" stop-opacity="0.12"/>
      <stop offset="40%" stop-color="#ffffff" stop-opacity="0.04"/>
      <stop offset="100%" stop-color="#ffffff" stop-opacity="0"/>
    </linearGradient>

    <!-- Warm orange glow for active cathode -->
    <radialGradient id="glowGrad" cx="50%" cy="50%" r="50%">
      <stop offset="0%" stop-color="#ff8c00" stop-opacity="0.35"/>
      <stop offset="60%" stop-color="#ff6600" stop-opacity="0.15"/>
      <stop offset="100%" stop-color="#ff4400" stop-opacity="0"/>
    </radialGradient>

    <!-- Cathode wire glow filter -->
    <filter id="cathodeGlow" x="-20%" y="-20%" width="140%" height="140%">
      <feGaussianBlur stdDeviation="2.5" result="blur"/>
      <feComposite in="SourceGraphic" in2="blur" operator="over"/>
    </filter>

    <!-- Outer tube glow -->
    <filter id="tubeGlow" x="-15%" y="-15%" width="130%" height="130%">
      <feGaussianBlur stdDeviation="8" result="blur"/>
      <feColorMatrix in="blur" type="matrix"
        values="1 0.4 0 0 0.2
                0.3 0.6 0 0 0.1
                0 0 0 0 0
                0 0 0 0.6 0"/>
      <feComposite in="SourceGraphic" operator="over"/>
    </filter>

    <!-- Text glow -->
    <filter id="textGlow">
      <feGaussianBlur stdDeviation="3" result="blur"/>
      <feComposite in="SourceGraphic" in2="blur" operator="over"/>
    </filter>

    <!-- Pin metal gradient -->
    <linearGradient id="pinGrad" x1="0%" y1="0%" x2="100%" y2="0%">
      <stop offset="0%" stop-color="#555566"/>
      <stop offset="50%" stop-color="#888899"/>
      <stop offset="100%" stop-color="#444455"/>
    </linearGradient>

    <!-- Clip for tube interior -->
    <clipPath id="tubeClip">
      <rect x="52" y="48" width="408" height="360" rx="28"/>
    </clipPath>
  </defs>

  <!-- Background: deep charcoal -->
  <rect width="512" height="512" rx="80" fill="#0d0d1a"/>
  <rect width="512" height="512" rx="80" fill="url(#glowGrad)" opacity="0.5"/>

  <!-- Subtle grid lines on background -->
  <g opacity="0.06" stroke="#7788ff" stroke-width="0.5">
    <line x1="0" y1="128" x2="512" y2="128"/>
    <line x1="0" y1="256" x2="512" y2="256"/>
    <line x1="0" y1="384" x2="512" y2="384"/>
    <line x1="128" y1="0" x2="128" y2="512"/>
    <line x1="256" y1="0" x2="256" y2="512"/>
    <line x1="384" y1="0" x2="384" y2="512"/>
  </g>

  <!-- Tube outer glow halo -->
  <rect x="44" y="40" width="424" height="376" rx="34" fill="none"
        stroke="#ff7700" stroke-width="2" opacity="0.25" filter="url(#tubeGlow)"/>

  <!-- Main tube body -->
  <rect x="52" y="48" width="408" height="360" rx="28"
        fill="url(#glassGrad)" stroke="#1e1e32" stroke-width="1.5"/>

  <!-- Inner orange ambient glow -->
  <rect x="52" y="48" width="408" height="360" rx="28"
        fill="#ff6600" opacity="0.07"/>

  <!-- Cathode mesh / grid lines inside tube -->
  <g clip-path="url(#tubeClip)" opacity="0.08" stroke="#ff8833" stroke-width="0.8">
    <line x1="52" y1="100" x2="460" y2="100"/>
    <line x1="52" y1="160" x2="460" y2="160"/>
    <line x1="52" y1="220" x2="460" y2="220"/>
    <line x1="52" y1="280" x2="460" y2="280"/>
    <line x1="52" y1="340" x2="460" y2="340"/>
    <line x1="52" y1="390" x2="460" y2="390"/>
  </g>

  <!-- Glass shine overlay -->
  <rect x="52" y="48" width="408" height="360" rx="28"
        fill="url(#shineGrad)"/>

  <!-- Left shine streak -->
  <ellipse cx="115" cy="200" rx="18" ry="120" fill="white" opacity="0.04" transform="rotate(-8 115 200)"/>

  <!-- ═══ NIXIE TUBE DIGIT TEXT ═══ -->
  <!-- Shadow/depth layer -->
  <text x="256" y="290"
        font-family="'Courier New', Courier, monospace"
        font-size="148"
        font-weight="900"
        text-anchor="middle"
        fill="#441100"
        letter-spacing="4">Nixie</text>

  <!-- Inactive cathode layer (dim) -->
  <text x="256" y="290"
        font-family="'Courier New', Courier, monospace"
        font-size="148"
        font-weight="900"
        text-anchor="middle"
        fill="#3d1800"
        letter-spacing="4">Nixie</text>

  <!-- Active cathode — main orange glow -->
  <text x="256" y="290"
        font-family="'Courier New', Courier, monospace"
        font-size="148"
        font-weight="900"
        text-anchor="middle"
        fill="#ff7722"
        filter="url(#textGlow)"
        letter-spacing="4">Nixie</text>

  <!-- Hot core — brightest center -->
  <text x="256" y="290"
        font-family="'Courier New', Courier, monospace"
        font-size="148"
        font-weight="900"
        text-anchor="middle"
        fill="#ffcc88"
        opacity="0.6"
        letter-spacing="4">Nixie</text>

  <!-- Tube rim highlight top -->
  <rect x="52" y="48" width="408" height="4" rx="2" fill="white" opacity="0.08"/>

  <!-- Tube glass outer border -->
  <rect x="52" y="48" width="408" height="360" rx="28"
        fill="none" stroke="#ff8844" stroke-width="1" opacity="0.3"/>
  <rect x="54" y="50" width="404" height="356" rx="27"
        fill="none" stroke="#222233" stroke-width="1"/>

  <!-- ═══ PINS at bottom ═══ -->
  <g fill="url(#pinGrad)">
    <!-- Pin base bar -->
    <rect x="100" y="408" width="312" height="14" rx="4" fill="#1a1a2a"/>

    <!-- Individual pins -->
    <rect x="118" y="418" width="8" height="46" rx="3"/>
    <rect x="148" y="418" width="8" height="38" rx="3"/>
    <rect x="178" y="418" width="8" height="46" rx="3"/>
    <rect x="208" y="418" width="8" height="38" rx="3"/>
    <rect x="238" y="418" width="8" height="46" rx="3"/>
    <rect x="268" y="418" width="8" height="38" rx="3"/>
    <rect x="298" y="418" width="8" height="46" rx="3"/>
    <rect x="328" y="418" width="8" height="38" rx="3"/>
    <rect x="358" y="418" width="8" height="46" rx="3"/>
    <rect x="388" y="418" width="8" height="38" rx="3"/>
  </g>

  <!-- Pin tips (gold) -->
  <g fill="#c8a84b" opacity="0.8">
    <rect x="118" y="460" width="8" height="4" rx="2"/>
    <rect x="148" y="452" width="8" height="4" rx="2"/>
    <rect x="178" y="460" width="8" height="4" rx="2"/>
    <rect x="208" y="452" width="8" height="4" rx="2"/>
    <rect x="238" y="460" width="8" height="4" rx="2"/>
    <rect x="268" y="452" width="8" height="4" rx="2"/>
    <rect x="298" y="460" width="8" height="4" rx="2"/>
    <rect x="328" y="452" width="8" height="4" rx="2"/>
    <rect x="358" y="460" width="8" height="4" rx="2"/>
    <rect x="388" y="452" width="8" height="4" rx="2"/>
  </g>

  <!-- Anode ring at top of tube -->
  <rect x="80" y="44" width="352" height="10" rx="5" fill="#1a1a2a" opacity="0.8"/>
  <rect x="90" y="45" width="332" height="7" rx="3"
        fill="none" stroke="#555566" stroke-width="1"/>

  <!-- Corner screws -->
  <circle cx="80" cy="72" r="6" fill="#1e1e30" stroke="#444455" stroke-width="1"/>
  <line x1="77" y1="72" x2="83" y2="72" stroke="#666677" stroke-width="1"/>
  <line x1="80" y1="69" x2="80" y2="75" stroke="#666677" stroke-width="1"/>

  <circle cx="432" cy="72" r="6" fill="#1e1e30" stroke="#444455" stroke-width="1"/>
  <line x1="429" y1="72" x2="435" y2="72" stroke="#666677" stroke-width="1"/>
  <line x1="432" y1="69" x2="432" y2="75" stroke="#666677" stroke-width="1"/>

  <circle cx="80" cy="388" r="6" fill="#1e1e30" stroke="#444455" stroke-width="1"/>
  <line x1="77" y1="388" x2="83" y2="388" stroke="#666677" stroke-width="1"/>
  <line x1="80" y1="385" x2="80" y2="391" stroke="#666677" stroke-width="1"/>

  <circle cx="432" cy="388" r="6" fill="#1e1e30" stroke="#444455" stroke-width="1"/>
  <line x1="429" y1="388" x2="435" y2="388" stroke="#666677" stroke-width="1"/>
  <line x1="432" y1="385" x2="432" y2="391" stroke="#666677" stroke-width="1"/>
</svg>
